<?xml version="1.0" encoding="utf-8" ?>
<svg baseProfile="full" height="512" version="1.1" viewBox="0 0 512 512" width="512" xmlns="http://www.w3.org/2000/svg" xmlns:ev="http://www.w3.org/2001/xml-events" xmlns:xlink="http://www.w3.org/1999/xlink"><defs /><path d="M 353,190 L 343,189 L 328,184 L 320,184 L 313,187 L 299,199 L 294,216 L 294,236 L 309,276 L 309,262 L 301,234 L 302,223 L 308,218 L 328,218 L 333,216 L 340,210 Z" fill="black" fill-rule="evenodd" stroke="none" /><path d="M 338,194 L 334,204 L 327,210 L 315,210 L 311,208 L 309,205 L 309,200 L 313,196 L 315,196 L 318,200 L 321,201 L 325,199 L 329,191 L 336,192 Z" fill="white" fill-rule="evenodd" stroke="none" /><path d="M 157,190 L 171,211 L 182,218 L 202,218 L 208,223 L 209,236 L 202,258 L 200,275 L 202,276 L 216,236 L 216,217 L 211,199 L 199,189 L 189,184 L 180,184 L 167,189 Z" fill="black" fill-rule="evenodd" stroke="none" /><path d="M 173,194 L 179,191 L 183,191 L 185,197 L 189,201 L 192,201 L 198,196 L 202,202 L 202,207 L 192,211 L 183,210 L 175,202 Z" fill="white" fill-rule="evenodd" stroke="none" /><path d="M 180,0 L 168,3 L 157,8 L 146,16 L 141,22 L 162,25 L 180,33 L 194,43 L 203,52 L 202,53 L 189,48 L 175,45 L 155,47 L 147,39 L 136,33 L 128,31 L 112,31 L 91,38 L 80,46 L 69,59 L 61,79 L 62,104 L 66,115 L 74,128 L 82,137 L 92,145 L 85,150 L 70,165 L 60,179 L 51,197 L 44,221 L 45,253 L 48,262 L 68,229 L 88,209 L 89,210 L 74,239 L 66,262 L 61,286 L 61,310 L 68,336 L 74,349 L 80,357 L 83,342 L 96,309 L 114,282 L 125,271 L 127,272 L 105,318 L 95,352 L 95,379 L 104,405 L 113,420 L 117,423 L 117,394 L 122,370 L 128,353 L 135,339 L 144,327 L 145,329 L 136,357 L 130,386 L 131,411 L 136,427 L 142,438 L 154,454 L 167,466 L 171,465 L 164,433 L 164,406 L 178,435 L 191,457 L 208,479 L 220,491 L 228,496 L 229,467 L 224,447 L 225,445 L 229,449 L 236,461 L 242,475 L 252,507 L 255,511 L 269,472 L 284,445 L 285,450 L 281,465 L 281,496 L 288,492 L 302,478 L 313,464 L 327,442 L 345,405 L 347,408 L 346,429 L 339,466 L 343,465 L 354,455 L 367,437 L 373,425 L 378,410 L 379,381 L 373,354 L 364,329 L 365,326 L 375,339 L 383,355 L 388,370 L 393,400 L 393,423 L 402,411 L 409,397 L 414,381 L 415,355 L 408,327 L 400,308 L 382,273 L 383,270 L 398,285 L 413,308 L 424,334 L 429,357 L 434,351 L 440,339 L 444,328 L 448,308 L 447,278 L 440,252 L 420,210 L 421,209 L 441,229 L 452,244 L 461,261 L 464,256 L 466,245 L 466,222 L 459,197 L 449,178 L 435,160 L 418,145 L 435,129 L 445,112 L 449,93 L 448,79 L 440,59 L 430,47 L 411,35 L 396,31 L 380,31 L 370,34 L 362,39 L 354,48 L 344,45 L 335,45 L 320,48 L 308,53 L 307,52 L 318,41 L 331,32 L 347,25 L 368,22 L 359,12 L 338,2 L 329,0 L 304,0 L 291,3 L 272,13 L 255,32 L 246,20 L 237,12 L 222,4 L 206,0 Z" fill="black" fill-rule="evenodd" stroke="none" /><path d="M 311,379 L 312,383 L 309,398 L 303,411 L 298,418 L 291,425 L 277,432 L 276,431 L 278,427 L 278,419 L 276,417 L 270,427 L 255,442 L 241,429 L 233,417 L 233,433 L 218,425 L 206,411 L 200,399 L 198,390 L 199,380 L 214,384 L 224,383 L 248,372 L 260,372 L 279,381 L 291,384 L 301,383 Z" fill="white" fill-rule="evenodd" stroke="none" /><path d="M 419,209 L 421,209 Z" fill="white" fill-rule="evenodd" stroke="none" /><path d="M 186,92 L 207,85 L 224,84 L 242,91 L 252,97 L 257,97 L 275,87 L 284,84 L 297,84 L 310,87 L 330,95 L 347,107 L 365,127 L 378,150 L 387,174 L 391,193 L 391,216 L 386,238 L 378,259 L 371,272 L 360,287 L 347,301 L 341,311 L 341,330 L 338,341 L 327,360 L 318,369 L 312,372 L 304,374 L 288,374 L 279,371 L 266,363 L 257,351 L 257,343 L 262,330 L 276,316 L 286,314 L 293,308 L 298,299 L 299,292 L 297,292 L 290,301 L 282,299 L 272,299 L 263,302 L 247,302 L 238,299 L 227,299 L 221,302 L 211,292 L 212,300 L 217,308 L 224,314 L 235,316 L 248,330 L 252,339 L 252,352 L 242,364 L 224,373 L 205,374 L 193,370 L 183,361 L 172,343 L 169,333 L 169,310 L 167,306 L 145,280 L 128,250 L 120,225 L 118,208 L 119,190 L 127,161 L 134,145 L 149,121 L 164,106 Z" fill="white" fill-rule="evenodd" stroke="none" /><path d="M 385,62 L 394,62 L 406,66 L 417,77 L 420,84 L 420,98 L 415,110 L 403,123 L 390,130 L 387,128 L 380,114 L 371,105 L 355,95 L 356,86 L 362,76 L 375,65 Z" fill="white" fill-rule="evenodd" stroke="none" /><path d="M 113,62 L 125,62 L 139,68 L 150,79 L 156,93 L 154,96 L 140,104 L 132,112 L 122,131 L 111,126 L 99,116 L 94,109 L 89,96 L 89,85 L 93,76 L 103,66 Z" fill="white" fill-rule="evenodd" stroke="none" /></svg>